<svg width="768" height="768" xmlns="http://www.w3.org/2000/svg" version="1.1">

 <g>
  <title>background</title>
  <rect fill="none" id="canvas_background" height="604" width="1278" y="-1" x="-1"/>
 </g>
 <g>
  <title>Layer 1</title>
  <g id="icomoon-ignore">
   <line id="svg_1" opacity="0.3" stroke="#449FDB" y2="768" x2="16" y1="0" x1="16"/>
   <line id="svg_2" stroke="#449FDB" y2="768" x2="32" y1="0" x1="32"/>
   <line id="svg_3" opacity="0.3" stroke="#449FDB" y2="768" x2="48" y1="0" x1="48"/>
   <line id="svg_4" stroke="#449FDB" y2="768" x2="64" y1="0" x1="64"/>
   <line id="svg_5" opacity="0.3" stroke="#449FDB" y2="768" x2="80" y1="0" x1="80"/>
   <line id="svg_6" stroke="#449FDB" y2="768" x2="96" y1="0" x1="96"/>
   <line id="svg_7" opacity="0.3" stroke="#449FDB" y2="768" x2="112" y1="0" x1="112"/>
   <line id="svg_8" stroke="#449FDB" y2="768" x2="128" y1="0" x1="128"/>
   <line id="svg_9" opacity="0.3" stroke="#449FDB" y2="768" x2="144" y1="0" x1="144"/>
   <line id="svg_10" stroke="#449FDB" y2="768" x2="160" y1="0" x1="160"/>
   <line id="svg_11" opacity="0.3" stroke="#449FDB" y2="768" x2="176" y1="0" x1="176"/>
   <line id="svg_12" stroke="#449FDB" y2="768" x2="192" y1="0" x1="192"/>
   <line id="svg_13" opacity="0.3" stroke="#449FDB" y2="768" x2="208" y1="0" x1="208"/>
   <line id="svg_14" stroke="#449FDB" y2="768" x2="224" y1="0" x1="224"/>
   <line id="svg_15" opacity="0.3" stroke="#449FDB" y2="768" x2="240" y1="0" x1="240"/>
   <line id="svg_16" stroke="#449FDB" y2="768" x2="256" y1="0" x1="256"/>
   <line id="svg_17" opacity="0.3" stroke="#449FDB" y2="768" x2="272" y1="0" x1="272"/>
   <line id="svg_18" stroke="#449FDB" y2="768" x2="288" y1="0" x1="288"/>
   <line id="svg_19" opacity="0.3" stroke="#449FDB" y2="768" x2="304" y1="0" x1="304"/>
   <line id="svg_20" stroke="#449FDB" y2="768" x2="320" y1="0" x1="320"/>
   <line id="svg_21" opacity="0.3" stroke="#449FDB" y2="768" x2="336" y1="0" x1="336"/>
   <line id="svg_22" stroke="#449FDB" y2="768" x2="352" y1="0" x1="352"/>
   <line id="svg_23" opacity="0.3" stroke="#449FDB" y2="768" x2="368" y1="0" x1="368"/>
   <line id="svg_24" stroke="#449FDB" y2="768" x2="384" y1="0" x1="384"/>
   <line id="svg_25" opacity="0.3" stroke="#449FDB" y2="768" x2="400" y1="0" x1="400"/>
   <line id="svg_26" stroke="#449FDB" y2="768" x2="416" y1="0" x1="416"/>
   <line id="svg_27" opacity="0.3" stroke="#449FDB" y2="768" x2="432" y1="0" x1="432"/>
   <line id="svg_28" stroke="#449FDB" y2="768" x2="448" y1="0" x1="448"/>
   <line id="svg_29" opacity="0.3" stroke="#449FDB" y2="768" x2="464" y1="0" x1="464"/>
   <line id="svg_30" stroke="#449FDB" y2="768" x2="480" y1="0" x1="480"/>
   <line id="svg_31" opacity="0.3" stroke="#449FDB" y2="768" x2="496" y1="0" x1="496"/>
   <line id="svg_32" stroke="#449FDB" y2="768" x2="512" y1="0" x1="512"/>
   <line id="svg_33" opacity="0.3" stroke="#449FDB" y2="768" x2="528" y1="0" x1="528"/>
   <line id="svg_34" stroke="#449FDB" y2="768" x2="544" y1="0" x1="544"/>
   <line id="svg_35" opacity="0.3" stroke="#449FDB" y2="768" x2="560" y1="0" x1="560"/>
   <line id="svg_36" stroke="#449FDB" y2="768" x2="576" y1="0" x1="576"/>
   <line id="svg_37" opacity="0.3" stroke="#449FDB" y2="768" x2="592" y1="0" x1="592"/>
   <line id="svg_38" stroke="#449FDB" y2="768" x2="608" y1="0" x1="608"/>
   <line id="svg_39" opacity="0.3" stroke="#449FDB" y2="768" x2="624" y1="0" x1="624"/>
   <line id="svg_40" stroke="#449FDB" y2="768" x2="640" y1="0" x1="640"/>
   <line id="svg_41" opacity="0.3" stroke="#449FDB" y2="768" x2="656" y1="0" x1="656"/>
   <line id="svg_42" stroke="#449FDB" y2="768" x2="672" y1="0" x1="672"/>
   <line id="svg_43" opacity="0.3" stroke="#449FDB" y2="768" x2="688" y1="0" x1="688"/>
   <line id="svg_44" stroke="#449FDB" y2="768" x2="704" y1="0" x1="704"/>
   <line id="svg_45" opacity="0.3" stroke="#449FDB" y2="768" x2="720" y1="0" x1="720"/>
   <line id="svg_46" stroke="#449FDB" y2="768" x2="736" y1="0" x1="736"/>
   <line id="svg_47" opacity="0.3" stroke="#449FDB" y2="768" x2="752" y1="0" x1="752"/>
   <line id="svg_48" opacity="0.3" stroke="#449FDB" y2="16" x2="768" y1="16" x1="0"/>
   <line id="svg_49" stroke="#449FDB" y2="32" x2="768" y1="32" x1="0"/>
   <line id="svg_50" opacity="0.3" stroke="#449FDB" y2="48" x2="768" y1="48" x1="0"/>
   <line id="svg_51" stroke="#449FDB" y2="64" x2="768" y1="64" x1="0"/>
   <line id="svg_52" opacity="0.3" stroke="#449FDB" y2="80" x2="768" y1="80" x1="0"/>
   <line id="svg_53" stroke="#449FDB" y2="96" x2="768" y1="96" x1="0"/>
   <line id="svg_54" opacity="0.3" stroke="#449FDB" y2="112" x2="768" y1="112" x1="0"/>
   <line id="svg_55" stroke="#449FDB" y2="128" x2="768" y1="128" x1="0"/>
   <line id="svg_56" opacity="0.3" stroke="#449FDB" y2="144" x2="768" y1="144" x1="0"/>
   <line id="svg_57" stroke="#449FDB" y2="160" x2="768" y1="160" x1="0"/>
   <line id="svg_58" opacity="0.3" stroke="#449FDB" y2="176" x2="768" y1="176" x1="0"/>
   <line id="svg_59" stroke="#449FDB" y2="192" x2="768" y1="192" x1="0"/>
   <line id="svg_60" opacity="0.3" stroke="#449FDB" y2="208" x2="768" y1="208" x1="0"/>
   <line id="svg_61" stroke="#449FDB" y2="224" x2="768" y1="224" x1="0"/>
   <line id="svg_62" opacity="0.3" stroke="#449FDB" y2="240" x2="768" y1="240" x1="0"/>
   <line id="svg_63" stroke="#449FDB" y2="256" x2="768" y1="256" x1="0"/>
   <line id="svg_64" opacity="0.3" stroke="#449FDB" y2="272" x2="768" y1="272" x1="0"/>
   <line id="svg_65" stroke="#449FDB" y2="288" x2="768" y1="288" x1="0"/>
   <line id="svg_66" opacity="0.3" stroke="#449FDB" y2="304" x2="768" y1="304" x1="0"/>
   <line id="svg_67" stroke="#449FDB" y2="320" x2="768" y1="320" x1="0"/>
   <line id="svg_68" opacity="0.3" stroke="#449FDB" y2="336" x2="768" y1="336" x1="0"/>
   <line id="svg_69" stroke="#449FDB" y2="352" x2="768" y1="352" x1="0"/>
   <line id="svg_70" opacity="0.3" stroke="#449FDB" y2="368" x2="768" y1="368" x1="0"/>
   <line id="svg_71" stroke="#449FDB" y2="384" x2="768" y1="384" x1="0"/>
   <line id="svg_72" opacity="0.3" stroke="#449FDB" y2="400" x2="768" y1="400" x1="0"/>
   <line id="svg_73" stroke="#449FDB" y2="416" x2="768" y1="416" x1="0"/>
   <line id="svg_74" opacity="0.3" stroke="#449FDB" y2="432" x2="768" y1="432" x1="0"/>
   <line id="svg_75" stroke="#449FDB" y2="448" x2="768" y1="448" x1="0"/>
   <line id="svg_76" opacity="0.3" stroke="#449FDB" y2="464" x2="768" y1="464" x1="0"/>
   <line id="svg_77" stroke="#449FDB" y2="480" x2="768" y1="480" x1="0"/>
   <line id="svg_78" opacity="0.3" stroke="#449FDB" y2="496" x2="768" y1="496" x1="0"/>
   <line id="svg_79" stroke="#449FDB" y2="512" x2="768" y1="512" x1="0"/>
   <line id="svg_80" opacity="0.3" stroke="#449FDB" y2="528" x2="768" y1="528" x1="0"/>
   <line id="svg_81" stroke="#449FDB" y2="544" x2="768" y1="544" x1="0"/>
   <line id="svg_82" opacity="0.3" stroke="#449FDB" y2="560" x2="768" y1="560" x1="0"/>
   <line id="svg_83" stroke="#449FDB" y2="576" x2="768" y1="576" x1="0"/>
   <line id="svg_84" opacity="0.3" stroke="#449FDB" y2="592" x2="768" y1="592" x1="0"/>
   <line id="svg_85" stroke="#449FDB" y2="608" x2="768" y1="608" x1="0"/>
   <line id="svg_86" opacity="0.3" stroke="#449FDB" y2="624" x2="768" y1="624" x1="0"/>
   <line id="svg_87" stroke="#449FDB" y2="640" x2="768" y1="640" x1="0"/>
   <line id="svg_88" opacity="0.3" stroke="#449FDB" y2="656" x2="768" y1="656" x1="0"/>
   <line id="svg_89" stroke="#449FDB" y2="672" x2="768" y1="672" x1="0"/>
   <line id="svg_90" opacity="0.3" stroke="#449FDB" y2="688" x2="768" y1="688" x1="0"/>
   <line id="svg_91" stroke="#449FDB" y2="704" x2="768" y1="704" x1="0"/>
   <line id="svg_92" opacity="0.3" stroke="#449FDB" y2="720" x2="768" y1="720" x1="0"/>
   <line id="svg_93" stroke="#449FDB" y2="736" x2="768" y1="736" x1="0"/>
   <line id="svg_94" opacity="0.3" stroke="#449FDB" y2="752" x2="768" y1="752" x1="0"/>
  </g>
  <path fill="#00a0dc" id="svg_95" d="m384,640.5q105,0 180.75,-75.75t75.75,-180.75t-75.75,-180.75t-180.75,-75.75t-180.75,75.75t-75.75,180.75t75.75,180.75t180.75,75.75zm0,-576q132,0 225.75,93.75t93.75,225.75t-93.75,225.75t-225.75,93.75t-225.75,-93.75t-93.75,-225.75t93.75,-225.75t225.75,-93.75zm-160.5,288l321,0l0,63l-321,0l0,-63z"/>
 </g>
</svg>